<svg width="30" height="30" viewBox="0 0 30 30" fill="none" xmlns="http://www.w3.org/2000/svg">
<path d="M23.75 4.99917H22.3738C21.7925 2.15089 19.2675 0 16.25 0H6.25C2.80375 0 0 2.80328 0 6.24896V22.3138C0 23.3061 0.54375 24.2135 1.4175 24.6809C1.815 24.8946 2.25125 24.9996 2.68625 24.9996C3.20625 24.9996 3.725 24.8484 4.17375 24.5497L7.86125 22.0913C8.725 24.5097 11.0375 26.2456 13.75 26.2456H20.8713L25.8262 29.5488C26.2762 29.8488 26.7937 30 27.3137 30C27.7487 30 28.1837 29.8938 28.5825 29.6801C29.4575 29.2126 30 28.3053 30 27.3129V11.2481C30 7.80245 27.1962 4.99917 23.75 4.99917ZM2.7875 22.47C2.76375 22.485 2.69375 22.53 2.5975 22.4788C2.49875 22.4263 2.49875 22.3425 2.49875 22.315V6.24896C2.49875 4.1818 4.18125 2.49958 6.24875 2.49958H16.2487C18.3162 2.49958 19.9987 4.1818 19.9987 6.24896V14.9975C19.9987 17.0647 18.3162 18.7469 16.2487 18.7469H8.74875C8.34 18.7469 8.0725 18.9456 8.0425 18.9656L2.7875 22.47ZM27.5 27.3142C27.5 27.3404 27.5 27.4254 27.4012 27.4779C27.3025 27.5292 27.235 27.4842 27.2125 27.4692L21.9438 23.956C21.7388 23.8198 21.4975 23.746 21.25 23.746H13.75C12.12 23.746 10.7312 22.7012 10.215 21.2465H16.25C19.6962 21.2465 22.5 18.4432 22.5 14.9975V7.49875H23.75C25.8175 7.49875 27.5 9.18097 27.5 11.2481V27.3142Z" fill="#303943"/>
</svg>
