<svg width="21" height="24" viewBox="0 0 21 24" fill="none" xmlns="http://www.w3.org/2000/svg">
<path d="M15.7042 8.53322C14.6053 7.4082 13.6571 6.43701 13.6571 3.81798C13.6571 3.58561 13.5616 3.3647 13.3958 3.20924C13.2292 3.05461 13.0066 2.98179 12.7847 3.00388C10.9018 3.21088 7.34132 4.67381 7.34132 8.72713C7.34132 8.88995 7.34763 9.08713 7.35553 9.30722C7.38395 10.1581 7.43763 11.7422 6.95684 12.2576C6.88737 12.3321 6.78474 12.409 6.55263 12.409C6.40895 12.409 6.315 12.3664 6.21947 12.256C5.75447 11.725 5.67079 10.1614 5.75921 9.22131C5.77895 9.01104 5.71974 8.80976 5.60526 8.65104C5.55632 8.58313 5.49632 8.52176 5.42605 8.47103C5.14816 8.26976 4.78105 8.27549 4.51026 8.47758C4.395 8.56431 4.30026 8.68376 4.24184 8.82858L4.10053 9.18122C3.60947 10.3938 2.99921 11.9042 3 13.2272C3.00237 18.0938 5.80579 21 10.5 21C15.3363 21 18 18.3851 18 13.6363C18 10.8814 16.7803 9.63368 15.7042 8.53322ZM10.4992 19.3636C6.6829 19.3636 4.57974 17.184 4.57816 13.2272C4.57816 13.0578 4.59474 12.8762 4.62395 12.6872C5.16632 13.8621 6.05211 14.0454 6.55184 14.0454C7.16211 14.0454 7.695 13.8204 8.09211 13.3941C9.0379 12.3795 8.97553 10.4961 8.9329 9.25077C8.92658 9.05195 8.92026 8.8744 8.92026 8.72713C8.92026 6.13591 10.9397 5.16063 12.1224 4.81208C12.3624 7.41229 13.5418 8.61913 14.595 9.6975C15.615 10.7407 16.4203 11.5654 16.4203 13.6363C16.4203 17.49 14.4837 19.3636 10.4992 19.3636Z" fill="url(#paint0_linear_81_233)"/>
<g filter="url(#filter0_f_81_233)">
<path d="M15.7042 8.53322C14.6053 7.4082 13.6571 6.43701 13.6571 3.81798C13.6571 3.58561 13.5616 3.3647 13.3958 3.20924C13.2292 3.05461 13.0066 2.98179 12.7847 3.00388C10.9018 3.21088 7.34132 4.67381 7.34132 8.72713C7.34132 8.88995 7.34763 9.08713 7.35553 9.30722C7.38395 10.1581 7.43763 11.7422 6.95684 12.2576C6.88737 12.3321 6.78474 12.409 6.55263 12.409C6.40895 12.409 6.315 12.3664 6.21947 12.256C5.75447 11.725 5.67079 10.1614 5.75921 9.22131C5.77895 9.01104 5.71974 8.80976 5.60526 8.65103C5.55632 8.58312 5.49632 8.52176 5.42605 8.47103C5.14816 8.26976 4.78105 8.27549 4.51026 8.47758C4.395 8.56431 4.30026 8.68376 4.24184 8.82858L4.10053 9.18122C3.60947 10.3938 2.99921 11.9042 3 13.2272C3.00237 18.0938 5.80579 21 10.5 21C15.3363 21 18 18.3851 18 13.6363C18 10.8814 16.7803 9.63368 15.7042 8.53322ZM10.4992 19.3636C6.6829 19.3636 4.57974 17.184 4.57816 13.2272C4.57816 13.0578 4.59474 12.8762 4.62395 12.6872C5.16632 13.8621 6.05211 14.0454 6.55184 14.0454C7.16211 14.0454 7.695 13.8204 8.09211 13.3941C9.0379 12.3795 8.97553 10.4961 8.9329 9.25077C8.92658 9.05195 8.92026 8.8744 8.92026 8.72713C8.92026 6.13591 10.9397 5.16063 12.1224 4.81208C12.3624 7.41229 13.5418 8.61913 14.595 9.6975C15.615 10.7407 16.4203 11.5654 16.4203 13.6363C16.4203 17.49 14.4837 19.3636 10.4992 19.3636Z" fill="url(#paint1_linear_81_233)"/>
</g>
<defs>
<filter id="filter0_f_81_233" x="0.2" y="0.2" width="20.6" height="23.6" filterUnits="userSpaceOnUse" color-interpolation-filters="sRGB">
<feFlood flood-opacity="0" result="BackgroundImageFix"/>
<feBlend mode="normal" in="SourceGraphic" in2="BackgroundImageFix" result="shape"/>
<feGaussianBlur stdDeviation="0.4" result="effect1_foregroundBlur_81_233"/>
</filter>
<linearGradient id="paint0_linear_81_233" x1="10.5" y1="3" x2="10.5" y2="21" gradientUnits="userSpaceOnUse">
<stop stop-color="#FFA040"/>
<stop offset="1" stop-color="#9240FF"/>
</linearGradient>
<linearGradient id="paint1_linear_81_233" x1="10.5" y1="3" x2="10.5" y2="21" gradientUnits="userSpaceOnUse">
<stop stop-color="#FFA040"/>
<stop offset="1" stop-color="#9240FF"/>
</linearGradient>
</defs>
</svg>
