<svg width="30" height="30" viewBox="0 0 30 30" fill="none" xmlns="http://www.w3.org/2000/svg">
<path d="M15 11.7675V13.75C15 14.4412 15.5588 15 16.25 15H18.2325C19.5675 15 20.8225 14.48 21.7675 13.535L28.9013 6.40125C30.3638 4.93875 30.3638 2.56125 28.9013 1.09875C27.4388 -0.36375 25.0612 -0.36375 23.5987 1.09875L16.465 8.2325C15.52 9.1775 15 10.4325 15 11.7675ZM17.5 11.7675C17.5 11.1 17.76 10.4725 18.2325 10L25.3662 2.86625C25.855 2.3775 26.645 2.3775 27.1338 2.86625C27.6225 3.355 27.6213 4.14625 27.1338 4.63375L20 11.7675C19.5275 12.24 18.9 12.5 18.2325 12.5H17.5V11.7675ZM26.25 21.25H25V17.5C25 16.8088 24.4412 16.25 23.75 16.25C23.0588 16.25 22.5 16.8088 22.5 17.5V21.25H16.25C14.1825 21.25 12.5 22.9325 12.5 25V25.625C12.5 26.6588 11.6587 27.5 10.625 27.5C9.59125 27.5 8.75 26.6588 8.75 25.625V4.375C8.75 3.70125 8.58375 3.07 8.31125 2.5H17.5C18.1912 2.5 18.75 1.94125 18.75 1.25C18.75 0.55875 18.1912 0 17.5 0H4.375C1.9625 0 0 1.9625 0 4.375V5C0 7.0675 1.6825 8.75 3.75 8.75H6.25V25.625C6.25 28.0375 8.21125 29.9988 10.6225 30H25.625C28.0375 30 30 28.0375 30 25.625V25C30 22.9325 28.3175 21.25 26.25 21.25ZM6.25 6.25H3.75C3.06 6.25 2.5 5.69 2.5 5V4.375C2.5 3.34125 3.34125 2.5 4.375 2.5C5.40875 2.5 6.25 3.34125 6.25 4.375V6.25ZM27.5 25.625C27.5 26.6588 26.6588 27.5 25.625 27.5H14.5775C14.8487 26.9312 15 26.295 15 25.625V25C15 24.31 15.56 23.75 16.25 23.75H26.25C26.94 23.75 27.5 24.31 27.5 25V25.625Z" fill="#303943"/>
</svg>
