<svg width="36" height="34" viewBox="0 0 36 34" fill="none" xmlns="http://www.w3.org/2000/svg">
<path d="M13.5006 16.9993C18.4643 16.9993 22.5009 13.2993 22.5009 8.74966C22.5009 4.19997 18.4643 0.5 13.5006 0.5C8.53686 0.5 4.50019 4.19997 4.50019 8.74966C4.50019 13.2993 8.53686 16.9993 13.5006 16.9993ZM13.5006 3.24989C16.8097 3.24989 19.5008 5.71653 19.5008 8.74966C19.5008 11.7828 16.8097 14.2494 13.5006 14.2494C10.1914 14.2494 7.50031 11.7828 7.50031 8.74966C7.50031 5.71653 10.1914 3.24989 13.5006 3.24989ZM16.1257 22.8016C15.2736 22.6008 14.3901 22.4991 13.5006 22.4991C7.71032 22.4991 3.00012 26.8164 3.00012 32.1237C3.00012 32.8827 2.3281 33.4986 1.50006 33.4986C0.672028 33.4986 0 32.8827 0 32.1237C0 25.3012 6.05725 19.7492 13.5006 19.7492C14.6436 19.7492 15.7792 19.8798 16.8757 20.1397C17.6782 20.3294 18.1598 21.0788 17.9542 21.8144C17.7487 22.55 16.9342 22.9913 16.1272 22.8029L16.1257 22.8016ZM34.6829 16.8329C32.9819 15.2738 30.0177 15.2738 28.3182 16.8329L18.2573 26.0547C17.1247 27.0928 16.4992 28.4746 16.4992 29.9444V32.1251C16.4992 32.884 17.1712 33.5 17.9992 33.5H20.3783C21.9819 33.5 23.488 32.9267 24.6205 31.8886L34.6814 22.6668C35.532 21.8872 36 20.8519 36 19.7492C36 18.6465 35.532 17.6112 34.6829 16.8329ZM32.5604 20.7213L22.4979 29.943C21.9324 30.4628 21.1794 30.7487 20.3768 30.7487H19.4978V29.943C19.4978 29.2088 19.8098 28.5186 20.3768 27.9989L30.4393 18.7771C31.0048 18.2574 31.9933 18.2574 32.5604 18.7771C32.8439 19.0356 32.9999 19.3807 32.9999 19.7492C32.9999 20.1177 32.8439 20.4614 32.5604 20.7213Z" fill="#303943"/>
</svg>
