<svg width="29" height="33" viewBox="0 0 29 33" fill="none" xmlns="http://www.w3.org/2000/svg">
<path d="M24.5615 10.1442C22.4368 8.0817 20.6037 6.30118 20.6037 1.49963C20.6037 1.07362 20.4191 0.668616 20.0985 0.383613C19.7765 0.10011 19.3461 -0.0333921 18.9172 0.00710842C15.2769 0.386613 8.39321 3.06864 8.39321 10.4997C8.39321 10.7982 8.40542 11.1597 8.42069 11.5632C8.47563 13.1233 8.57942 16.0273 7.6499 16.9723C7.51558 17.1088 7.31716 17.2498 6.86842 17.2498C6.59063 17.2498 6.409 17.1718 6.22432 16.9693C5.32532 15.9958 5.16353 13.1293 5.33448 11.4057C5.37263 11.0202 5.25816 10.6512 5.03684 10.3602C4.94221 10.2357 4.82621 10.1232 4.69037 10.0302C4.15311 9.66122 3.44337 9.67172 2.91984 10.0422C2.697 10.2012 2.51384 10.4202 2.4009 10.6857L2.12769 11.3322C1.17832 13.5553 -0.00152484 16.3243 1.47937e-06 18.7498C0.00458043 27.6719 5.42453 33 14.5 33C23.8502 33 29 28.2059 29 19.4998C29 14.4493 26.6418 12.1618 24.5615 10.1442ZM14.4985 30C7.12027 30 3.05416 26.0039 3.05111 18.7498C3.05111 18.4393 3.08316 18.1063 3.13963 17.7598C4.18821 19.9138 5.90074 20.2498 6.8669 20.2498C8.04674 20.2498 9.077 19.8373 9.84474 19.0558C11.6733 17.1958 11.5527 13.7428 11.4703 11.4597C11.4581 11.0952 11.4458 10.7697 11.4458 10.4997C11.4458 5.74918 15.3502 3.96116 17.6366 3.32215C18.1006 8.0892 20.3809 10.3017 22.417 12.2788C24.389 14.1913 25.9458 15.7033 25.9458 19.4998C25.9458 26.5649 22.2018 30 14.4985 30Z" fill="#303943"/>
</svg>
