<svg width="30" height="30" viewBox="0 0 30 30" fill="none" xmlns="http://www.w3.org/2000/svg">
<path d="M28.0562 2.58364L24.8225 0.643723C24.1212 0.222491 23.3187 0 22.5012 0C21.8112 0 21.25 0.559977 21.25 1.24995V13.7494C21.25 14.4394 21.81 14.9994 22.5 14.9994C23.19 14.9994 23.75 14.4394 23.75 13.7494V7.49969L28.055 4.91729C28.9363 4.38857 28.9375 3.11237 28.0562 2.58364Z" fill="#303943"/>
<path d="M10.625 6.24974C12.3509 6.24974 13.75 4.85069 13.75 3.12487C13.75 1.39905 12.3509 0 10.625 0C8.89911 0 7.5 1.39905 7.5 3.12487C7.5 4.85069 8.89911 6.24974 10.625 6.24974Z" fill="#303943"/>
<path d="M26.25 17.4993H22.5C20.4325 17.4993 18.75 19.1817 18.75 21.2491V22.7128C18.36 22.5741 17.9387 22.4991 17.5 22.4991H13.75V19.6529C13.75 18.5717 13.06 17.6193 12.0337 17.2793L10.37 16.7293L12.155 9.99958H13.6825C14.3612 9.99958 15.0287 9.81459 15.6112 9.46461L18.1438 7.94592C18.7363 7.59093 18.9275 6.82347 18.5725 6.23099C18.2188 5.63852 17.4513 5.44602 16.8575 5.80226L14.3263 7.32095C14.1313 7.43719 13.9087 7.49969 13.6825 7.49969H7.88625C6.42375 7.49969 5.13875 8.53839 4.84625 9.90709L3.725 14.0919C3.3925 15.3756 3.925 16.6868 4.96 17.4193L4.1 19.9992H1.25C0.56 19.9992 0 20.5591 0 21.2491C0 21.9391 0.56 22.4991 1.25 22.4991H4.09875C5.17625 22.4991 6.13 21.8128 6.47 20.7904L7.285 18.3442L11.2487 19.6529V23.4753C10.4875 24.1615 9.99875 25.1464 9.99875 26.2501V27.5001H1.25C0.56 27.5001 0 28.0601 0 28.75C0 29.44 0.56 30 1.25 30H11.25C11.94 30 12.5 29.44 12.5 28.75V26.2501C12.5 25.5614 13.0612 25.0002 13.75 25.0002H17.5C18.19 25.0002 18.75 25.5614 18.75 26.2501V28.75C18.75 29.44 19.3088 30 20 30C20.6912 30 21.25 29.44 21.25 28.75V21.2504C21.25 20.5616 21.81 20.0004 22.5 20.0004H26.25C26.94 20.0004 27.5 20.5616 27.5 21.2504V28.75C27.5 29.44 28.0588 30 28.75 30C29.4412 30 30 29.44 30 28.75V21.2504C30 19.1829 28.3175 17.5005 26.25 17.5005V17.4993ZM6.14125 14.7294L7.275 10.4933C7.33625 10.2071 7.59375 9.99958 7.88625 9.99958H9.56875L7.99125 15.9443L6.55375 15.4694C6.24125 15.3656 6.0625 15.0369 6.14125 14.7294Z" fill="#303943"/>
</svg>
