<svg width="34" height="26" viewBox="0 0 34 26" fill="none" xmlns="http://www.w3.org/2000/svg">
<path d="M32.5833 0H1.41667C0.634263 0 0 0.89543 0 2C0 3.10457 0.634263 4 1.41667 4H32.5833C33.3657 4 34 3.10457 34 2C34 0.89543 33.3657 0 32.5833 0Z" fill="#303943"/>
<path d="M32.5833 11H1.41667C0.634263 11 0 11.8954 0 13C0 14.1046 0.634263 15 1.41667 15H32.5833C33.3657 15 34 14.1046 34 13C34 11.8954 33.3657 11 32.5833 11Z" fill="#303943"/>
<path d="M32.5833 22H1.41667C0.634263 22 0 22.8954 0 24C0 25.1046 0.634263 26 1.41667 26H32.5833C33.3657 26 34 25.1046 34 24C34 22.8954 33.3657 22 32.5833 22Z" fill="#303943"/>
</svg>
