<svg width="20" height="20" viewBox="0 0 20 20" fill="none" xmlns="http://www.w3.org/2000/svg">
<path d="M10 0.109375C11.9778 0.109375 13.9112 0.66556 15.5557 1.7076C17.2002 2.74963 18.4819 4.23072 19.2388 5.96356C19.9957 7.6964 20.1937 9.60318 19.8078 11.4428C19.422 13.2823 18.4696 14.9721 17.0711 16.2983C15.6725 17.6246 13.8907 18.5278 11.9509 18.8937C10.0111 19.2596 8.00042 19.0718 6.17316 18.3541C4.3459 17.6363 2.78412 16.4208 1.6853 14.8613C0.586491 13.3018 0 11.4683 0 9.59266C0.00286674 7.07837 1.05736 4.66784 2.9321 2.88997C4.80684 1.1121 7.34871 0.112094 10 0.109375ZM10 1.68992C8.07794 1.68847 6.21506 2.32036 4.73 3.47752L16.4483 14.5903C17.4479 13.4333 18.0803 12.0307 18.272 10.5461C18.4637 9.06138 18.2068 7.5556 17.5312 6.20399C16.8556 4.85239 15.7891 3.71055 14.4558 2.9114C13.1225 2.11225 11.5773 1.68866 10 1.68992ZM10 17.4954C11.9221 17.4968 13.7849 16.865 15.27 15.7078L3.55166 4.59497C2.55214 5.75206 1.91971 7.15457 1.72801 8.63925C1.53631 10.1239 1.79321 11.6297 2.46882 12.9813C3.14443 14.3329 4.21095 15.4748 5.54423 16.2739C6.87752 17.0731 8.42273 17.4967 10 17.4954Z" fill="#303943"/>
</svg>
