<svg width="30" height="31" viewBox="0 0 30 31" fill="none" xmlns="http://www.w3.org/2000/svg">
<path d="M19.5649 29.7083C19.5649 30.4213 18.9818 31 18.2605 31H6.52162C2.9256 31 0 28.1028 0 24.5417V6.45833C0 2.89721 2.9256 0 6.52162 0H12.4106C14.8484 0 17.1414 0.940333 18.867 2.64792L23.4113 7.15067C23.7648 7.50071 24.0935 7.88433 24.3869 8.29121C24.8056 8.87117 24.67 9.67846 24.0843 10.0931C23.4987 10.5064 22.6822 10.3734 22.2648 9.79212C22.0548 9.5015 21.82 9.22638 21.5683 8.97838L17.0227 4.47562C16.608 4.06487 16.1475 3.71742 15.6519 3.43583V9.04167C15.6519 9.75337 16.2362 10.3333 16.9562 10.3333H20.8692C21.5905 10.3333 22.1735 10.912 22.1735 11.625C22.1735 12.338 21.5905 12.9167 20.8692 12.9167H16.9562C14.7989 12.9167 13.0432 11.1781 13.0432 9.04167V2.61304C12.8345 2.59367 12.6232 2.58333 12.4106 2.58333H6.52162C4.36427 2.58333 2.60865 4.32192 2.60865 6.45833V24.5417C2.60865 26.6781 4.36427 28.4167 6.52162 28.4167H18.2605C18.9818 28.4167 19.5649 28.9953 19.5649 29.7083ZM26.9799 21.0115L23.0135 20.3567C22.527 20.2766 22.1735 19.8632 22.1735 19.375C22.1735 18.6633 22.7578 18.0833 23.4778 18.0833H26.436C26.9004 18.0833 27.3334 18.3313 27.5669 18.7292C27.9256 19.3466 28.7212 19.5571 29.3486 19.2006C29.9721 18.8428 30.186 18.0536 29.8234 17.4362C29.1269 16.2414 27.8278 15.4987 26.4347 15.4987H26.0852V14.207C26.0852 13.494 25.5021 12.9154 24.7809 12.9154C24.0596 12.9154 23.4765 13.494 23.4765 14.207V15.4987C21.3192 15.4987 19.5636 17.2373 19.5636 19.3737C19.5636 21.1304 20.834 22.6158 22.5831 22.9038L26.5495 23.5587C27.036 23.6388 27.3895 24.0521 27.3895 24.5404C27.3895 25.2521 26.8052 25.832 26.0852 25.832H23.127C22.6626 25.832 22.2296 25.584 21.9961 25.1862C21.6374 24.5675 20.8405 24.357 20.2144 24.7148C19.5909 25.0725 19.377 25.8617 19.7396 26.4792C20.4362 27.674 21.7353 28.4154 23.1283 28.4154H23.4778V29.707C23.4778 30.42 24.0609 30.9987 24.7822 30.9987C25.5034 30.9987 26.0865 30.42 26.0865 29.707V28.4154C28.2438 28.4154 29.9995 26.6768 29.9995 24.5404C29.9995 22.7837 28.729 21.2996 26.9799 21.0115ZM8.47811 19.375H15.6519C16.3732 19.375 16.9562 18.7963 16.9562 18.0833C16.9562 17.3703 16.3732 16.7917 15.6519 16.7917H8.47811C6.68075 16.7917 5.2173 18.2409 5.2173 20.0208V22.6042C5.2173 24.3841 6.68075 25.8333 8.47811 25.8333H15.6519C16.3732 25.8333 16.9562 25.2547 16.9562 24.5417C16.9562 23.8287 16.3732 23.25 15.6519 23.25H8.47811C8.11811 23.25 7.82594 22.9607 7.82594 22.6042V20.0208C7.82594 19.6643 8.11811 19.375 8.47811 19.375ZM6.52162 14.2083H9.13027C9.85026 14.2083 10.4346 13.6297 10.4346 12.9167C10.4346 12.2037 9.85026 11.625 9.13027 11.625H6.52162C5.80163 11.625 5.2173 12.2037 5.2173 12.9167C5.2173 13.6297 5.80163 14.2083 6.52162 14.2083ZM6.52162 9.04167H9.13027C9.85026 9.04167 10.4346 8.463 10.4346 7.75C10.4346 7.037 9.85026 6.45833 9.13027 6.45833H6.52162C5.80163 6.45833 5.2173 7.037 5.2173 7.75C5.2173 8.463 5.80163 9.04167 6.52162 9.04167Z" fill="#303943"/>
</svg>
