<svg width="33" height="33" viewBox="0 0 33 33" fill="none" xmlns="http://www.w3.org/2000/svg">
<path d="M28.1878 21.9994H23.3756V17.1866C23.3756 14.5327 21.217 12.3739 18.5634 12.3739H14.4387C11.7851 12.3739 9.62648 14.5327 9.62648 17.1866V17.8742H4.81428C2.1607 17.8742 0.00208294 20.033 0.00208294 22.6869V28.1872C0.00208294 30.8411 2.1607 33 4.81428 33H28.1878C30.8414 33 33 30.8411 33 28.1872V26.8122C33 24.1583 30.8414 21.9994 28.1878 21.9994ZM12.3763 17.1866C12.3763 16.0494 13.3016 15.124 14.4387 15.124H18.5634C19.7005 15.124 20.6258 16.0494 20.6258 17.1866V30.2498H12.3763V17.1866ZM2.75191 28.1872V22.6869C2.75191 21.5497 3.67723 20.6243 4.81428 20.6243H9.62648V30.2498H4.81428C3.67723 30.2498 2.75191 29.3244 2.75191 28.1872ZM30.2502 28.1872C30.2502 29.3244 29.3249 30.2498 28.1878 30.2498H23.3756V24.7495H28.1878C29.3249 24.7495 30.2502 25.675 30.2502 26.8122V28.1872ZM30.2502 15.8115C30.2502 15.4334 29.9422 15.124 29.5627 15.124H28.8753C28.1163 15.124 27.5003 14.5093 27.5003 13.7489C27.5003 12.9885 28.1163 12.3739 28.8753 12.3739C29.2547 12.3739 29.5627 12.0645 29.5627 11.6863C29.5627 11.3082 29.2547 10.9988 28.8753 10.9988H26.1254C25.3665 10.9988 24.7505 10.3841 24.7505 9.6237C24.7505 8.86329 25.3665 8.24863 26.1254 8.24863H28.8753C30.7699 8.24863 32.3125 9.79009 32.3125 11.6863C32.3125 12.2694 32.1654 12.8194 31.9083 13.302C32.5793 13.9291 33 14.8215 33 15.8115C33 17.7078 31.4573 19.2492 29.5627 19.2492H26.1254C25.3665 19.2492 24.7505 18.6346 24.7505 17.8742C24.7505 17.1137 25.3665 16.4991 26.1254 16.4991H29.5627C29.9422 16.4991 30.2502 16.1897 30.2502 15.8115ZM5.50174 8.24863C5.50174 7.48958 4.8844 6.87355 4.12682 6.87355C3.36925 6.87355 2.75191 7.48958 2.75191 8.24863C2.75191 9.00767 2.13595 9.6237 1.377 9.6237C0.618044 9.6237 0.00208294 9.00904 0.00208294 8.24863C0.00208294 5.97425 1.85272 4.1234 4.12682 4.1234C6.40093 4.1234 8.25156 5.97425 8.25156 8.24863C8.25156 10.1242 6.50955 11.3769 4.76203 12.3739H6.87665C7.6356 12.3739 8.25156 12.9885 8.25156 13.7489C8.25156 14.5093 7.6356 15.124 6.87665 15.124H2.21294C1.16113 15.124 0.321063 14.552 0.0722035 13.6664C-0.18628 12.7465 0.261942 11.7771 1.21338 11.1982C1.55711 10.9892 1.97233 10.765 2.41781 10.5244C3.18088 10.1119 5.50174 8.85916 5.50174 8.24863ZM12.7792 4.2334C12.2416 3.69575 12.2416 2.8267 12.7792 2.28905L14.4868 0.5812C15.0574 0.0119187 15.9071 -0.155841 16.6509 0.152177C17.3961 0.461569 17.876 1.18073 17.876 1.98653V9.62508C17.876 10.3855 17.26 11.0002 16.501 11.0002C15.7421 11.0002 15.1261 10.3855 15.1261 9.62508V3.83051L14.7233 4.2334C14.1871 4.77106 13.3167 4.77106 12.7792 4.2334Z" fill="#303943"/>
</svg>
