<svg width="20" height="20" viewBox="0 0 20 20" fill="none" xmlns="http://www.w3.org/2000/svg">
<path d="M10 13.544C7.7 13.544 5.83333 11.7738 5.83333 9.59266C5.83333 7.4115 7.7 5.64129 10 5.64129C12.3 5.64129 14.1667 7.4115 14.1667 9.59266C14.1667 11.7738 12.3 13.544 10 13.544ZM10 7.22184C8.625 7.22184 7.5 8.28871 7.5 9.59266C7.5 10.8966 8.625 11.9635 10 11.9635C11.375 11.9635 12.5 10.8966 12.5 9.59266C12.5 8.28871 11.375 7.22184 10 7.22184ZM10.8333 3.27047V0.899649C10.8333 0.464998 10.4583 0.109375 10 0.109375C9.54167 0.109375 9.16667 0.464998 9.16667 0.899649V3.27047C9.16667 3.70512 9.54167 4.06074 10 4.06074C10.4583 4.06074 10.8333 3.70512 10.8333 3.27047ZM10.8333 18.2857V15.9148C10.8333 15.4802 10.4583 15.1246 10 15.1246C9.54167 15.1246 9.16667 15.4802 9.16667 15.9148V18.2857C9.16667 18.7203 9.54167 19.0759 10 19.0759C10.4583 19.0759 10.8333 18.7203 10.8333 18.2857ZM4.16667 9.59266C4.16667 9.15801 3.79167 8.80238 3.33333 8.80238H0.833333C0.375 8.80238 0 9.15801 0 9.59266C0 10.0273 0.375 10.3829 0.833333 10.3829H3.33333C3.79167 10.3829 4.16667 10.0273 4.16667 9.59266ZM20 9.59266C20 9.15801 19.625 8.80238 19.1667 8.80238H16.6667C16.2083 8.80238 15.8333 9.15801 15.8333 9.59266C15.8333 10.0273 16.2083 10.3829 16.6667 10.3829H19.1667C19.625 10.3829 20 10.0273 20 9.59266ZM5.59167 5.41211C5.91667 5.1039 5.91667 4.60603 5.59167 4.29783L3.925 2.71728C3.6 2.40907 3.075 2.40907 2.75 2.71728C2.425 3.02548 2.425 3.52336 2.75 3.83156L4.41667 5.41211C4.58333 5.57017 4.79167 5.64129 5.00833 5.64129C5.225 5.64129 5.43333 5.56226 5.6 5.41211H5.59167ZM17.2583 16.4759C17.5833 16.1677 17.5833 15.6699 17.2583 15.3617L15.5917 13.7811C15.2667 13.4729 14.7417 13.4729 14.4167 13.7811C14.0917 14.0893 14.0917 14.5872 14.4167 14.8954L16.0833 16.4759C16.25 16.634 16.4583 16.7051 16.675 16.7051C16.8917 16.7051 17.1 16.6261 17.2667 16.4759H17.2583ZM3.925 16.4759L5.59167 14.8954C5.91667 14.5872 5.91667 14.0893 5.59167 13.7811C5.26667 13.4729 4.74167 13.4729 4.41667 13.7811L2.75 15.3617C2.425 15.6699 2.425 16.1677 2.75 16.4759C2.91667 16.634 3.125 16.7051 3.34167 16.7051C3.55833 16.7051 3.76667 16.6261 3.93333 16.4759H3.925ZM15.5917 5.41211L17.2583 3.83156C17.5833 3.52336 17.5833 3.02548 17.2583 2.71728C16.9333 2.40907 16.4083 2.40907 16.0833 2.71728L14.4167 4.29783C14.0917 4.60603 14.0917 5.1039 14.4167 5.41211C14.5833 5.57017 14.7917 5.64129 15.0083 5.64129C15.225 5.64129 15.4333 5.56226 15.6 5.41211H15.5917Z" fill="#303943"/>
</svg>
