<svg width="27" height="33" viewBox="0 0 27 33" fill="none" xmlns="http://www.w3.org/2000/svg">
<path d="M13.5 16.5C15.28 16.5 17.0201 16.0161 18.5001 15.1096C19.9802 14.2031 21.1337 12.9146 21.8149 11.4071C22.4961 9.89965 22.6743 8.24085 22.3271 6.64051C21.9798 5.04017 21.1226 3.57016 19.864 2.41637C18.6053 1.26259 17.0016 0.476853 15.2558 0.158525C13.51 -0.159803 11.7004 0.00357461 10.0558 0.627998C8.41131 1.25242 7.00571 2.30984 6.01677 3.66655C5.02784 5.02325 4.5 6.61831 4.5 8.25C4.50238 10.4374 5.45136 12.5345 7.13867 14.0812C8.82598 15.6279 11.1138 16.4978 13.5 16.5ZM13.5 2.75C14.6867 2.75 15.8467 3.07257 16.8334 3.67692C17.8201 4.28127 18.5892 5.14025 19.0433 6.14524C19.4974 7.15024 19.6162 8.2561 19.3847 9.323C19.1532 10.3899 18.5818 11.3699 17.7426 12.1391C16.9035 12.9083 15.8344 13.4321 14.6705 13.6443C13.5067 13.8565 12.3003 13.7476 11.2039 13.3313C10.1075 12.9151 9.17047 12.2101 8.51118 11.3056C7.85189 10.4012 7.5 9.3378 7.5 8.25C7.5 6.79131 8.13214 5.39237 9.25736 4.36092C10.3826 3.32947 11.9087 2.75 13.5 2.75Z" fill="#303943"/>
<path d="M13.5 19.25C9.9208 19.2536 6.48932 20.5586 3.95844 22.8786C1.42756 25.1985 0.00397028 28.3441 0 31.625C0 31.9897 0.158035 32.3394 0.43934 32.5973C0.720644 32.8551 1.10218 33 1.5 33C1.89782 33 2.27936 32.8551 2.56066 32.5973C2.84196 32.3394 3 31.9897 3 31.625C3 29.0723 4.10625 26.6241 6.07538 24.8191C8.04451 23.0141 10.7152 22 13.5 22C16.2848 22 18.9555 23.0141 20.9246 24.8191C22.8938 26.6241 24 29.0723 24 31.625C24 31.9897 24.158 32.3394 24.4393 32.5973C24.7206 32.8551 25.1022 33 25.5 33C25.8978 33 26.2794 32.8551 26.5607 32.5973C26.842 32.3394 27 31.9897 27 31.625C26.996 28.3441 25.5724 25.1985 23.0416 22.8786C20.5107 20.5586 17.0792 19.2536 13.5 19.25Z" fill="#303943"/>
</svg>
